<?xml version="1.0" encoding="iso-8859-1"?>
<!-- Generator: Adobe Illustrator 19.0.0, SVG Export Plug-In . SVG Version: 6.00 Build 0)  -->
<svg version="1.1" id="Layer_1" xmlns="http://www.w3.org/2000/svg" xmlns:xlink="http://www.w3.org/1999/xlink" x="0px" y="0px"
	 viewBox="0 0 512.001 512.001" style="enable-background:new 0 0 512.001 512.001;" xml:space="preserve">
<rect x="223.971" y="127.909" style="fill:#CBBBA0;" width="64.048" height="32.023"/>
<g>
	<rect x="223.971" y="328.051" style="fill:#FAC15C;" width="64.048" height="24.022"/>
	<rect x="199.949" y="480.159" style="fill:#FAC15C;" width="112.082" height="24.022"/>
</g>
<rect x="215.964" y="352.073" style="fill:#CBBBA0;" width="80.053" height="128.097"/>
<rect x="215.964" y="392.099" style="fill:#FFFFFF;" width="40.026" height="48.034"/>
<circle style="fill:#F9B233;" cx="255.99" cy="71.866" r="64.048"/>
<g>
	<rect x="183.955" y="496.362" style="fill:#1D1D1B;" width="144.091" height="15.639"/>
	<path style="fill:#1D1D1B;" d="M303.852,472.343V344.25h-95.697v128.094h-8.192v15.639h112.082v-15.639h-8.193V472.343z
		 M223.794,399.918h24.382v32.395h-24.382V399.918z M223.794,447.954h40.021V384.28h-40.021v-24.39h64.42v112.454h-64.42V447.954z"
		/>
	<polygon style="fill:#1D1D1B;" points="288.018,320.233 263.815,320.233 263.815,167.75 288.018,167.75 288.018,152.11 
		223.972,152.11 223.972,167.75 248.176,167.75 248.176,320.233 223.972,320.233 223.972,335.873 288.018,335.873 	"/>
	<path style="fill:#1D1D1B;" d="M255.995,143.732c-39.627,0-71.867-32.239-71.867-71.867C184.128,32.239,216.368,0,255.995,0
		c39.627,0,71.866,32.239,71.866,71.866C327.861,111.494,295.622,143.732,255.995,143.732z M255.995,15.639
		c-31.003,0-56.228,25.222-56.228,56.227s25.223,56.228,56.228,56.228s56.227-25.223,56.227-56.228S286.999,15.639,255.995,15.639z"
		/>
</g>
<path style="fill:#FFFFFF;" d="M303.843,71.866h-15.639c0-17.76-14.449-32.21-32.21-32.21V24.017
	C282.379,24.017,303.843,45.481,303.843,71.866z"/>
<g>
</g>
<g>
</g>
<g>
</g>
<g>
</g>
<g>
</g>
<g>
</g>
<g>
</g>
<g>
</g>
<g>
</g>
<g>
</g>
<g>
</g>
<g>
</g>
<g>
</g>
<g>
</g>
<g>
</g>
</svg>
